<svg width="1200" height="600" xmlns="http://www.w3.org/2000/svg" preserveAspectRatio="xMidYMid meet" version="1.0">

 <g>
  <title>Layer 1</title>
  <g id="svg_1" fill="#000000">
   <path id="svg_2" d="m386.12369,300c0,-70.7 0.3,-107 1,-107c0.7,0 1,36.3 1,107c0,70.7 -0.3,107 -1,107c-0.7,0 -1,-36.3 -1,-107z"/>
   <path id="svg_3" d="m222.32369,390.6c-9.9,-2.4 -20.1,-8.3 -27.7,-16.1c-11.2,-11.3 -16.6,-24.9 -16.6,-41.4c0.1,-14.7 2.8,-25.5 10.1,-39.3c13.9,-26.1 14.5,-27.5 14.6,-36.8c0.1,-4.7 0.2,-8.9 0.2,-9.3c0.5,-2.4 11.6,7 16.5,13.9c5,6.9 7.8,15 8.6,24.4l0.6,7.5l2.6,-4.5c4.6,-7.8 6.1,-12.3 6.6,-20.2c0.7,-9.6 -1.1,-17.7 -7.3,-32.5c-4.1,-9.9 -4.8,-13.3 -2.6,-13.3c2,0 22.2,15.8 28.8,22.6c19.6,20 32.9,45.6 36.4,69.9c1.4,10.2 1.2,25.1 -0.5,32.4c-4.8,20.2 -22,37.3 -43,42.6c-7.1,1.8 -20,1.8 -27.3,0.1zm24.3,-3.7c15.5,-2.9 31.1,-14.7 37.8,-28.9c4.7,-10 6.1,-17.7 5.4,-30.3c-1.6,-30 -12.9,-55.4 -34.9,-77.8c-10.2,-10.5 -22.7,-20.6 -21.4,-17.3c3.8,9.1 7.8,22.4 8.5,28.5c1.1,8.6 0.2,14.9 -3.4,22.7c-3.3,7.1 -11.2,18.2 -13.1,18.2c-1.6,0 -1.6,0.2 -1.4,-10.5c0.1,-13.8 -3.7,-23.8 -12.3,-32.3l-4.4,-4.4l-0.5,6.1c-0.4,6.3 -0.3,6 -15.6,35.6c-6.4,12.5 -8.2,19 -8.9,33c-0.9,18.5 3.2,29.9 15.3,42.2c13,13.3 30.3,18.7 48.9,15.2z"/>
   <path id="svg_4" d="m227.02369,358.8c-4.5,-2.5 -7.9,-8.3 -7.9,-13.3c0,-2.9 0.3,-3.6 1.7,-3.3c1.2,0.2 2,1.6 2.4,4.1c0.4,2.4 1.8,5.1 3.8,7c2.8,2.9 3.7,3.2 9.1,3.2c5.1,0 6.3,-0.4 8.9,-2.9c1.9,-1.8 3.4,-4.5 3.9,-7c0.5,-2.8 1.3,-4.2 2.6,-4.4c1.7,-0.4 1.8,0.1 1.4,4.2c-0.7,5.6 -4.7,11.2 -9.4,13.2c-4.9,2.1 -12.3,1.7 -16.5,-0.8z"/>
   <path id="svg_5" d="m207.12369,331.1c-2.5,-4.7 -0.3,-12.1 3.5,-12.1c2,0 4.5,4 4.5,7c0,5.7 -5.7,9.3 -8,5.1z"/>
   <path id="svg_6" d="m258.12369,331.1c-2.2,-4.2 0,-12.1 3.4,-12.1c2.2,0 4.6,3.5 4.6,6.9c0,4.5 -1.6,7.1 -4.5,7.1c-1.4,0 -2.9,-0.8 -3.5,-1.9z"/>
   <path id="svg_7" d="m849.62369,361.6c-6.2,-2.8 -9.5,-8.7 -9.5,-17.2l0,-4.1l-5.5,-1.2c-10.3,-2.3 -16.7,-9.3 -20,-21.6c-2.2,-8.2 -3,-30.7 -1.6,-43.2c1.9,-17.3 6,-25.2 15.8,-30c5.3,-2.6 6.7,-2.8 16.8,-2.8c12.5,0 17.3,1.6 23.5,7.7c8,7.9 10,16.1 10,41.3c0,20 -1.1,28.1 -4.8,34.9c-3.4,6.2 -10.8,12.2 -16.2,13.1c-2.3,0.4 -4.4,1.3 -4.7,2.1c-0.9,2.3 1.8,7.4 4.1,7.8c10.1,1.9 10.1,1.9 10.4,5.9c0.2,2.3 -0.3,4.8 -1.3,6.3c-1.4,2.1 -2.3,2.4 -7.8,2.4c-3.4,-0.1 -7.5,-0.7 -9.2,-1.4zm3.4,-41.1c5.5,-2.8 6.6,-7 6.9,-27.2c0.4,-20.4 -0.7,-27 -5.3,-31.3c-2.3,-2.2 -3.6,-2.5 -9.6,-2.5c-6,0 -7.2,0.3 -9.4,2.6c-3.8,3.7 -4.5,8.2 -4.5,28.4c-0.1,20.6 0.7,24.9 5,28.8c2.5,2.2 3.9,2.7 8.6,2.7c3,0 6.8,-0.7 8.3,-1.5z"/>
   <path id="svg_8" d="m599.52369,339.1c-7.7,-1.9 -12.8,-8.2 -19.4,-23.6c-5.8,-13.8 -6.9,-15.5 -10,-15.5l-2.5,0l-0.2,18.5c-0.1,10.1 -0.4,18.9 -0.8,19.5c-0.9,1.5 -15,1.3 -16.3,-0.3c-1.7,-2 -1.1,-92.2 0.6,-93.9c1.8,-1.8 23.2,-2.3 35.2,-0.8c11,1.4 19.2,5.1 22.7,10.3c1.2,1.7 2.9,6 3.8,9.4c1.7,7 1,15.4 -2.1,21.8c-2.1,4.4 -8.2,9.8 -14.6,12.8l-4.9,2.3l5,10.1c2.8,5.5 5.8,10.6 6.6,11.3c0.8,0.7 3.7,1.7 6.3,2.1c5.5,1.1 7.2,2.9 7.2,8.1c0,4.2 -2.7,7.8 -5.9,7.8c-1,0 -3.1,0.2 -4.7,0.4c-1.6,0.3 -4.3,0.1 -6,-0.3zm-8.1,-58.5c4.6,-3.5 4.2,-12.9 -0.9,-17.7c-2.4,-2.2 -3.3,-2.4 -12.6,-2.4l-10.1,0l-0.2,10.8l-0.2,10.7l11.1,0c7.7,-0.1 11.6,-0.5 12.9,-1.4z"/>
   <path id="svg_9" d="m649.12369,339.1c-10.7,-3.5 -16.6,-11.1 -18.9,-24.6c-3,-17.9 -2.1,-44.2 2.1,-55.2c2.6,-7.1 7.5,-12.5 13.6,-15.1c5.8,-2.5 22.4,-3.3 28.8,-1.4c6.7,2 13,7.6 16.7,15.1l3.2,6.6l0,26.5l0,26.5l-2.9,5.5c-3.5,6.7 -7.8,11.5 -13.1,14.3c-3.3,1.7 -6,2.2 -15.5,2.4c-6.3,0.1 -12.6,-0.1 -14,-0.6zm21,-19c5.1,-3.6 5.5,-5.9 5.5,-29.1c0,-18.8 -0.2,-22 -1.8,-25.2c-4.3,-8.6 -19.8,-9 -24.4,-0.6c-1.6,2.9 -1.8,5.9 -1.8,25.3c0,23.3 0.4,25.4 5.1,29.7c3.5,3.1 12.9,3 17.4,-0.1z"/>
   <path id="svg_10" d="m719.62369,339l-7,-0.5l0,-46.9c0,-37.6 0.3,-47.2 1.3,-48.3c1.7,-1.7 12.3,-1.7 14.4,-0.1c2.2,1.8 12.3,19.6 18.8,33.2c4.8,10.1 7,13.4 7,10.8c0,-1.9 22.1,-40.8 24.9,-44c1.5,-1.6 12.2,-1.6 14.4,0.1c1.5,1.1 1.7,5.6 1.8,47.6c0,25.4 -0.3,46.7 -0.8,47.1c-1,1.1 -15.1,1.6 -16.1,0.6c-0.4,-0.4 -0.9,-13.4 -1.2,-28.9l-0.5,-28.1l-7.9,14.5c-10.9,19.7 -11.2,20.1 -14.9,19.7c-3.2,-0.3 -4.8,-2.6 -18.3,-25.7l-4.9,-8.5l-0.5,28.5c-0.3,15.6 -0.7,28.5 -0.8,28.5c-1,0.7 -3.7,0.8 -9.7,0.4z"/>
   <path id="svg_11" d="m469.62369,337.8c-0.2,-0.7 -0.6,-19.3 -0.9,-41.3c-0.4,-37.8 0,-51.5 1.8,-53.2c1.3,-1.4 24.6,-1.5 34.6,-0.3c16.6,2 23.4,7 26.7,19.7c2.8,10.7 -0.1,21.8 -7.3,28.4c-7.2,6.4 -12.2,8.1 -25.5,8.7l-11.9,0.5l-0.2,11.1c-0.1,6.1 -0.2,14.3 -0.3,18.1c0,3.9 -0.4,7.6 -0.8,8.3c-0.5,0.8 -3.4,1.2 -8.3,1.2c-5.1,0 -7.6,-0.4 -7.9,-1.2zm40,-56.4c2.1,-0.8 4.5,-5.6 4.5,-8.9c0,-4.1 -2.9,-9.4 -6.1,-11c-1.8,-1 -5.9,-1.5 -11.9,-1.5l-9,0l0,11l0,11l10.4,0c5.7,0 11.2,-0.3 12.1,-0.6z"/>
   <path id="svg_12" d="m913.12369,337c-0.7,-1.3 -0.8,-13.5 -0.4,-39c0.4,-22 0.4,-37.1 -0.2,-37.1c-0.5,-0.1 -5.1,-0.2 -10.2,-0.3c-10.9,-0.2 -11.2,-0.4 -11.2,-9.3c0,-10.1 -2.7,-9.3 29.9,-9.3c21,0 29,0.3 29.9,1.2c1.7,1.7 1.6,14.3 -0.2,16.1c-1.1,1 -3.7,1.3 -10.5,1.1l-9.1,-0.3l0,38.5l0,38.4l-2.6,1c-1.4,0.6 -5.2,1 -8.4,1c-4.9,0 -6.1,-0.3 -7,-2z"/>
   <path id="svg_13" d="m984.12369,338c-1.3,-0.8 -1.5,-6 -1.2,-38.8c0.3,-30.6 0.1,-38 -1,-38.4c-0.7,-0.3 -5.3,-0.4 -10.1,-0.3c-8.5,0.2 -8.9,0.1 -9.8,-2.2c-1.4,-3.8 -1.1,-13.9 0.5,-15.2c0.9,-0.8 9.7,-1.1 30.2,-0.9l28.9,0.3l0.3,7.9c0.2,4.5 -0.2,8.4 -0.7,8.9c-0.6,0.6 -5.2,1.1 -10.3,1.1l-9.3,0.1l-0.2,38c-0.3,34.4 -0.5,38.1 -2,39.3c-2,1.4 -13.1,1.6 -15.3,0.2z"/>
  </g>
 </g>
</svg>